<?xml version="1.0" encoding="utf-8"?>
<!-- Generator: Adobe Illustrator 16.0.0, SVG Export Plug-In . SVG Version: 6.00 Build 0)  -->
<!DOCTYPE svg PUBLIC "-//W3C//DTD SVG 1.1//EN" "http://www.w3.org/Graphics/SVG/1.1/DTD/svg11.dtd">
<svg version="1.1" id="Layer_1" xmlns="http://www.w3.org/2000/svg" xmlns:xlink="http://www.w3.org/1999/xlink" x="0px" y="0px"
	 width="938.953px" height="362.982px" viewBox="0 0 938.953 362.982" enable-background="new 0 0 938.953 362.982"
	 xml:space="preserve">
<rect x="-39" y="-322.31" fill="#FFFFFF" width="1007.664" height="1002.673"/>
<g>
	<path fill-rule="evenodd" clip-rule="evenodd" fill="#F64747" d="M233.858,208.354c0.024,63.589-39.313,121.015-98.141,144.075
		c-10.688,4.189-20.367,3.961-30.944-0.209C25.62,321.007-13.801,229.345,18.354,150.611c1.101-2.697,2.44-5.297,3.676-7.937
		c2.987-6.381,8.028-8.887,14.241-5.559c5.851,3.13,5.206,8.519,2.697,13.964c-8.667,18.819-13.075,38.52-12.864,59.351
		c0.531,52.697,33.724,102.036,82.239,122.533c8.729,3.688,16.299,3.604,25.01-0.143c66.161-28.454,98.858-105.9,72.637-172.908
		c-1.238-3.165-2.954-6.153-4.06-9.355c-1.861-5.391-2.5-11.048,3.815-13.793c6.593-2.863,10.905,0.328,13.793,6.638
		C228.987,164.05,234.24,185.566,233.858,208.354z"/>
	<path fill-rule="evenodd" clip-rule="evenodd" fill="#F64747" d="M121.158,256.911c-25.764,0.246-45.593-18.824-46.136-44.37
		c-0.558-26.281,19.123-46.715,45.116-46.844c25.946-0.131,46.363,20.034,46.331,45.754
		C166.436,236.642,146.475,256.668,121.158,256.911z"/>
	<path fill-rule="evenodd" clip-rule="evenodd" fill="#F64747" d="M169.225,98.721c-7.201-2.363-11.902-7.263-6.049-13.722
		c13.657-15.074,28.374-29.201,42.968-43.394c2.878-2.797,7.468-2.794,10.779-0.2c3.464,2.711,3.946,6.461,1.032,10.214
		c-13.115,16.898-29.166,30.942-44.509,45.666C172.523,98.173,170.788,98.218,169.225,98.721z"/>
	<path fill-rule="evenodd" clip-rule="evenodd" fill="#F64747" d="M128.835,47.935c0.014,9.221-0.297,18.454,0.124,27.655
		c0.284,6.213-3.43,9.423-8.172,10.094c-5.821,0.828-8.836-3.779-8.892-9.17c-0.197-19.404-0.153-38.813,0.128-58.214
		c0.068-4.706,2.597-8.781,7.939-8.616c5.39,0.166,8.955,3.014,8.886,9.138C128.739,28.525,128.821,38.232,128.835,47.935z"/>
	<path fill-rule="evenodd" clip-rule="evenodd" fill="#F64747" d="M79.833,90.208c-1.912,7.934-7.253,11.553-13.49,5.859
		c-15.047-13.727-29.117-28.533-43.39-43.094c-3.02-3.079-3.239-6.815,0.051-10.391c3.132-3.402,7.711-4.495,10.445-1.88
		C48.841,55.433,63.723,70.698,78.666,85.89C79.538,86.777,79.435,88.621,79.833,90.208z"/>
	<path display="none" fill-rule="evenodd" clip-rule="evenodd" fill="#F84B47" d="M874.316,168.302
		c8.508,0.811,15.144,4.184,14.604,13.964c-0.508,9.188-7.899,11.536-15.334,11.893c-8.547,0.408-13.995-4.421-13.462-13.113
		C860.621,173,865.067,167.603,874.316,168.302z"/>
	<path display="none" fill-rule="evenodd" clip-rule="evenodd" fill="#F84C49" d="M417.112,168.259
		c8.529,0.383,15.438,3.356,15.45,13.108c0.016,10.131-7.998,12.4-15.922,12.797c-7.847,0.394-12.979-4.067-12.688-12.234
		C404.235,173.993,407.667,168.005,417.112,168.259z"/>
	<path display="none" fill-rule="evenodd" clip-rule="evenodd" fill="#FEFCFC" d="M646.269,240.241
		c-0.24,11.07-3.888,20.769-11.807,28.653c-5.773,5.748-12.766,7.446-19.798,3.411c-6.639-3.805-10.702-9.438-7.834-18.123
		c1.949-5.91,3.125-12.138,4.047-18.313c1.789-11.978,8.325-18.833,20.508-17.055C643.004,220.506,646.445,229.519,646.269,240.241z
		"/>
	<path fill-rule="evenodd" clip-rule="evenodd" fill="#FFFFFF" d="M147.47,211.976c-0.418,14.755-12.987,26.744-27.587,26.318
		c-14.655-0.431-26.634-13.036-26.273-27.646c0.368-14.929,12.399-26.185,27.596-25.816
		C136.452,185.204,147.895,197.027,147.47,211.976z"/>
</g>
<rect x="242.415" y="119.012" display="none" fill="#FFFFFF" width="738.536" height="227.948"/>
<text transform="matrix(1 0 0 1 264.7393 274.5142)" fill="#F64747" font-family="'AvenirNext-DemiBold'" font-size="175.3451">SimplFit</text>
</svg>
